<svg id="Calque_1" data-name="Calque 1" xmlns="http://www.w3.org/2000/svg" viewBox="0 0 256 256"><defs><style>.cls-1{fill:#294351;}</style></defs><title>Plan de travail 1</title><path id="Croche" class="cls-1" d="M123.62,84.67,88.9,209.61c-2.21-6.27-16.91-11.21-29-8.33C45.62,204.68,36.4,216,39.3,226.47s16.84,16.29,31.14,12.89c8.58-2,15.29-7,18.7-12.81,1.72-3.26,1.78-5.18,2.4-7.63l24.53-88.27c50.55,28.93,12.14,69.85,2.55,85.4,61.69-48.78.16-92.77,9.86-130Z"/><path id="Croche-2" data-name="Croche" class="cls-1" d="M217.93,76l-27,97.28c-1.72-4.88-13.17-8.73-22.56-6.49-11.14,2.65-18.32,11.43-16.06,19.62s13.11,12.69,24.25,10c6.68-1.59,11.91-5.42,14.56-10a20.54,20.54,0,0,0,1.87-5.94l19.1-68.73c39.36,22.53,9.45,54.39,2,66.5,48-38,.12-72.23,7.67-101.25Z"/><path id="Croche-3" data-name="Croche" class="cls-1" d="M99.48,8.62,78.39,84.52C77.33,80.79,69.52,78.1,63,80.06,55.21,82.39,50,89.36,51.39,95.63s8.74,9.48,16.5,7.16a17.41,17.41,0,0,0,10.3-8.07,18.25,18.25,0,0,0,1.44-4.64l14.9-53.62c26.63,16.44,5.18,41.82-.28,51.37C128.37,57.26,96.13,32,102.07,9.34Z"/></svg>