<svg xmlns="http://www.w3.org/2000/svg" viewBox="0 0 119 68">
    <title>
        Logo
    </title>
    <g id="Note">
        <path id="note-2" d="M76.66,9.19,59.4,54.37c-.6-2.41-5.9-4.76-10.5-4.12-5.44.76-9.27,4.62-8.55,8.63s5.7,6.65,11.14,5.89a10.91,10.91,0,0,0,7.4-4.1,9.81,9.81,0,0,0,1.16-2.75L72.26,26c17.81,12.53,2.09,26.37-2,31.81,24.66-15.94,3.28-34.45,8.19-47.95Z" data-name="note"/>
    </g>
    <g id="Text">
        <path d="M6,33.43c-.17.43-.43.43-.73.09-.6-.65-1.07-2.11-.09-4.69,1.59-4.08,8.56-15.57,13.2-21.89.39-.56.82-.73,1.38-.26,1.68,1.46,2.15,3,1,6.36-1.38,4.13-2.92,9.16-4.56,15.18,4.69-7.65,11-14.06,15.69-21.41.39-.6.73-.65,1.25-.13,1.72,1.76,1.29,4.13.13,6.28a164.23,164.23,0,0,0-9.46,20.47c-.17.43-.34.43-.69.13-.69-.56-1.2-1.85-.47-4.69.65-2.54,3.4-8.56,6.19-13.93C24,20.87,19,27.45,15.89,33.21c-.21.43-.43.56-.77.3-1.42-1-2.06-2.54-1.63-5.2a109.44,109.44,0,0,1,3.7-14.1C13.35,20,8.54,27.66,6,33.43Z"/>
        <path d="M32.06,33.47c-3.05-.21-3.14-3.4-2.19-6.23a46.13,46.13,0,0,1,5.93-11,.65.65,0,0,1,1.12,0c.95,1.42.73,3.35-.82,5.8a44.08,44.08,0,0,0-3.35,6.32c-.9,2.11-.77,3.66.22,3.74,1.68.13,4-2.88,6.36-6.62,2.71-4.39,4-7.35,5.33-9.2.43-.6.73-.69,1.07-.26.65.77,1,2.67,0,4.82-.95,1.94-3.1,5.16-4.08,7.35-1.12,2.45-.95,4.26.6,4.17,1.81-.09,4-2.92,5.68-5.93.22-.39.6-.43.77,0a3.74,3.74,0,0,1-.39,2.71c-1.25,2.41-3.91,4.6-6.45,4.6-2.79,0-3.91-1.76-3.57-4.26C36.75,31.45,34.47,33.64,32.06,33.47Z"/>
        <path d="M50.12,28.05c1.72,1.38,4.64,3.61,7.44,3.61a4.1,4.1,0,0,0,2.67-.77,1.49,1.49,0,0,0-.09-2.24c-2.28-1.94-9.07-4.6-9.07-9,0-5.89,6.66-10.92,10.49-12.56,2.06-.86,4.13-1.2,5.55.09a7.73,7.73,0,0,1,2.15,3.61c.43,1.72-.6,3.4-1.25,4.3a49.36,49.36,0,0,0-3,4.77c-.21.39-.47.6-.95.13-.82-.82-1.33-2.15-.43-4.17s4.13-5.63,3.1-6.71c-1.46-1.5-12,5.07-12.25,10.45-.13,2.79,5.37,5.07,7.78,6.79,1.63,1.16,1.42,3.14-.47,5.33-2.58,3-10.06,3.78-16.12-3.53-.47-.56-.3-.86.09-1A5,5,0,0,1,50.12,28.05Z"/>
        <path d="M98.36,16.05c1.42.22,2.75,2.32,1.68,4.56-.9,1.89-3,5.07-4,7.31-1.12,2.49-.86,4.51.69,4.43,1.76-.09,3.87-2.92,5.5-5.93.22-.39.52-.39.73,0s.21,1.46-.39,2.71c-1.16,2.41-3.87,4.6-6.36,4.6-3.66,0-4.51-2.67-3.27-6.41,1.42-4.21,5.2-8.77,4.43-9.12-.43-.17-2.92,1-5.68,4-2.54,2.75-4.43,6.88-6.28,10.92-.17.39-.43.56-.82.17-.86-.86-1.12-2.28-.43-4.43.86-2.71,4.17-8.69,6.88-12.68.3-.47.65-.43.9,0a5.1,5.1,0,0,1,.13,4.08C94,18.21,96.95,15.84,98.36,16.05Z"/>
        <path d="M114.7,18.68c.9,1.81-.82,4.08-1.68,6.41-.17.52-.34.65-.9.34-1-.52-1.63-1.81-1-3.74.47-1.55,1.76-3.4,1.16-3.87s-4,2.15-5.89,6.06c-2.36,4.86-1.46,8.43,1.08,8.47,3.61,0,6.71-3.4,8.47-6.11.21-.34.6-.39.77,0a3.9,3.9,0,0,1-.77,2.58,10.73,10.73,0,0,1-8.3,4.69c-5.46.09-7.31-5.25-4.51-10.79s7.09-7.74,9.25-6.45A5.68,5.68,0,0,1,114.7,18.68Z"/>
    </g>
</svg>
