<svg xmlns="http://www.w3.org/2000/svg" viewBox="0 0 119 49">
    <defs>
        <style>
            .cls-1{fill:#282f37;}.cls-2{fill:#e19503;}.cls-3{fill:#f79f79;}.cls-4{fill:#e9d88a;}
        </style>
    </defs>
    <title>
        Logo
    </title>
    <g id="Note">
        <path id="Croche" d="M69.61,1.21,60,35.7c-.61-1.73-4.68-3.1-8-2.31-4,.94-6.51,4-5.7,7s4.66,4.5,8.62,3.56a8.07,8.07,0,0,0,5.17-3.53,7.26,7.26,0,0,0,.66-2.11L67.53,13.9c14,8,3.37,19.29.72,23.58C85.31,24,68.28,11.87,71,1.58Z" class="cls-1"/>
    </g>
    <g id="Text">
        <path id="M" d="M1.62,7.78H7.25L12.82,16l5.54-8.19H24V29.12H17.17V21.44l-4.35,6.4-4.38-6.4v7.68H1.62Zm4,18.78V11.88l7.17,10.43L20,11.88V26.56h.83V10.34H20L12.82,20.87,5.65,10.34H4.82V26.56Z" class="cls-2"/>
        <path id="U" d="M35,29.67a12.17,12.17,0,0,1-3.65-.51,7.51,7.51,0,0,1-2.78-1.54A6.73,6.73,0,0,1,26.75,25a9.92,9.92,0,0,1-.62-3.68V7.78h6.82V21.06a2.72,2.72,0,0,0,.46,1.71,1.85,1.85,0,0,0,1.55.59,1.86,1.86,0,0,0,1.55-.59A2.73,2.73,0,0,0,37,21.06V7.78h6.85V21.35A9.92,9.92,0,0,1,43.2,25a6.65,6.65,0,0,1-1.79,2.59,7.67,7.67,0,0,1-2.8,1.54A12.17,12.17,0,0,1,35,29.67Zm0-3.84q-4.8,0-4.8-4.7V10.34h-.83V21.12a5.49,5.49,0,0,0,1.46,4.11A5.72,5.72,0,0,0,35,26.66a5.78,5.78,0,0,0,4.19-1.42,5.46,5.46,0,0,0,1.47-4.11V10.34h-.86V21.12Q39.76,25.83,35,25.83Z" class="cls-3"/>
        <path id="S" d="M45.39,22.5a10.52,10.52,0,0,0,1.47.35,11.6,11.6,0,0,0,1.46.26,14.09,14.09,0,0,0,1.65.1q1.47,0,1.47-1.09a1.22,1.22,0,0,0-.45-.85,13.53,13.53,0,0,0-1.14-1q-.69-.53-1.47-1.17a10.62,10.62,0,0,1-1.47-1.47,7.67,7.67,0,0,1-1.14-1.87,6,6,0,0,1-.45-2.38,6.15,6.15,0,0,1,.54-2.66,5.35,5.35,0,0,1,1.5-1.92,6.77,6.77,0,0,1,2.26-1.17,9.33,9.33,0,0,1,2.77-.4,14.84,14.84,0,0,1,1.54.08l1.38.14,1.38.19v6l-.58-.06-.58-.06c-.21,0-.44,0-.67,0l-.48,0a3,3,0,0,0-.54.08,1.11,1.11,0,0,0-.45.22.55.55,0,0,0-.19.45q0,.26.43.64t1.06.9q.62.51,1.38,1.18a9.54,9.54,0,0,1,1.38,1.54,9,9,0,0,1,1.06,2,6.56,6.56,0,0,1,.43,2.43,7.66,7.66,0,0,1-.45,2.64,5.62,5.62,0,0,1-1.39,2.14,6.66,6.66,0,0,1-2.42,1.44,10.35,10.35,0,0,1-3.49.53,21.25,21.25,0,0,1-2.26-.11q-1-.11-1.84-.27a15.49,15.49,0,0,1-1.7-.38Zm2.69,3.84q.45.1,1,.16l.94.11q.5,0,1,0a7.3,7.3,0,0,0,1.74-.21,4.39,4.39,0,0,0,1.52-.69,3.53,3.53,0,0,0,1.07-1.23,3.88,3.88,0,0,0,.4-1.84,3.56,3.56,0,0,0-.46-1.76,8.17,8.17,0,0,0-1.18-1.6,20.06,20.06,0,0,0-1.54-1.47q-.82-.7-1.54-1.42A8.78,8.78,0,0,1,49.82,15a2.71,2.71,0,0,1-.46-1.49,2.2,2.2,0,0,1,.74-1.78,3.64,3.64,0,0,1,2.37-.62l.53,0,.53,0a4.09,4.09,0,0,0,.51,0v-.83a3.85,3.85,0,0,1-.48,0l-.5,0-.56,0a4.85,4.85,0,0,0-2.85.78,2.78,2.78,0,0,0-1.12,2.45A3.24,3.24,0,0,0,49,15.19a8.45,8.45,0,0,0,1.18,1.54q.72.75,1.54,1.46t1.54,1.42a7.89,7.89,0,0,1,1.18,1.49,3.06,3.06,0,0,1,.46,1.6,2.77,2.77,0,0,1-1,2.34,4.59,4.59,0,0,1-2.86.8,11.29,11.29,0,0,1-2-.16q-.48-.06-.93-.16Z" class="cls-4"/>
        <path id="N" d="M79.57,7.78h5.6L91.06,16V7.78h6.69V29.12H92.11l-5.86-8.19v8.19H79.57Zm3.81,18.78V11.78L93.94,26.56h.83V10.34h-.83V25.12L83.38,10.34h-.83V26.56Z" class="cls-2"/>
        <path id="C" d="M99.5,18.47a11.49,11.49,0,0,1,.9-4.62,10.78,10.78,0,0,1,2.43-3.54,10.61,10.61,0,0,1,3.58-2.26,12.06,12.06,0,0,1,4.35-.78,13.61,13.61,0,0,1,3.25.35,15.42,15.42,0,0,1,2.45.8,11.55,11.55,0,0,1,2,1.12l-3.36,5.92a11.43,11.43,0,0,0-1.12-.74,10.88,10.88,0,0,0-1.3-.5A5.62,5.62,0,0,0,111,14a4.64,4.64,0,0,0-1.82.35,4.7,4.7,0,0,0-1.46,1,4.4,4.4,0,0,0-1,1.42,4.34,4.34,0,0,0-.35,1.74,4.19,4.19,0,0,0,.37,1.74,4.49,4.49,0,0,0,1,1.42,4.79,4.79,0,0,0,1.5,1,5,5,0,0,0,1.89.35,6,6,0,0,0,1.82-.26,6.69,6.69,0,0,0,1.34-.58,5,5,0,0,0,1.12-.83l3.36,5.92a9.53,9.53,0,0,1-2,1.25,17.41,17.41,0,0,1-2.46.83,12.84,12.84,0,0,1-3.3.38,12.68,12.68,0,0,1-4.61-.82,10.85,10.85,0,0,1-3.65-2.29,10.38,10.38,0,0,1-2.4-3.54A11.69,11.69,0,0,1,99.5,18.47Zm4,0a7.79,7.79,0,0,1,.53-2.88,7,7,0,0,1,1.49-2.34,6.92,6.92,0,0,1,2.34-1.57,7.87,7.87,0,0,1,3.07-.58,8.9,8.9,0,0,1,1.49.11,6.73,6.73,0,0,1,1.1.27,4.23,4.23,0,0,1,.93.38l.45-.77q-.51-.22-1.09-.42a12.35,12.35,0,0,0-1.25-.29,9.24,9.24,0,0,0-1.63-.13,8.57,8.57,0,0,0-3.12.58,8,8,0,0,0-2.62,1.65,8.09,8.09,0,0,0-2.51,6,8.4,8.4,0,0,0,.66,3.39,7.64,7.64,0,0,0,1.81,2.58,8,8,0,0,0,2.69,1.65,9.21,9.21,0,0,0,3.26.58,8.49,8.49,0,0,0,1.73-.16,10.33,10.33,0,0,0,1.31-.35,6.39,6.39,0,0,0,1.09-.51l-.45-.77a4,4,0,0,1-1,.48,7.18,7.18,0,0,1-1.15.34,7.58,7.58,0,0,1-1.57.14,8.29,8.29,0,0,1-3.17-.58,7,7,0,0,1-2.38-1.57,6.85,6.85,0,0,1-1.5-2.34A7.79,7.79,0,0,1,103.54,18.47Z" class="cls-4"/>
    </g>
</svg>
