<svg xmlns="http://www.w3.org/2000/svg" xmlns:xlink="http://www.w3.org/1999/xlink" x="0px" y="0px" version="1.1" viewBox="-43 59 86 23" xml:space="preserve">
    <g transform="rotate(45)">
        <path d="M79.858,20.143c-0.777-0.778-2.037-0.778-2.814,0L61.877,35.309c-1.901-1.335-4.156-2.062-6.527-2.062   c-3.045,0-5.907,1.186-8.061,3.34l-5.619,5.618l-5.619,5.619c-2.153,2.153-3.339,5.017-3.339,8.062c0,2.37,0.727,4.625,2.06,6.525   L20.141,77.043c-0.777,0.777-0.777,2.037,0,2.814c0.389,0.389,0.898,0.583,1.407,0.583s1.019-0.194,1.407-0.583l14.632-14.632   c1.901,1.334,4.155,2.062,6.526,2.062c3.045,0,5.907-1.185,8.061-3.337l5.619-5.622l5.619-5.618   c3.963-3.965,4.382-10.142,1.276-14.585l15.17-15.168C80.637,22.18,80.637,20.92,79.858,20.143z M49.359,61.136   c-1.4,1.399-3.264,2.17-5.246,2.17s-3.846-0.771-5.248-2.173c-1.402-1.401-2.173-3.265-2.173-5.246   c0-1.982,0.772-3.846,2.173-5.248l4.212-4.211l5.247,5.246l5.247,5.247L49.359,61.136z M60.598,49.896l-4.212,4.211L45.892,43.612   l4.212-4.211c1.402-1.401,3.266-2.174,5.246-2.174c1.982,0,3.846,0.772,5.248,2.174C63.489,42.295,63.489,47.001,60.598,49.896z"/>
    </g>
</svg>
